<?xml version="1.0" encoding="utf-8"?>
<!-- Generator: Adobe Illustrator 27.5.0, SVG Export Plug-In . SVG Version: 6.00 Build 0)  -->
<svg version="1.1" xmlns="http://www.w3.org/2000/svg" xmlns:xlink="http://www.w3.org/1999/xlink" x="0px" y="0px"
	 viewBox="0 0 2800 2000" style="enable-background:new 0 0 2800 2000;" xml:space="preserve">
<g id="BG">
	<rect style="fill:#FFFFFF;" width="2800" height="2000"/>
</g>
<g id="shadow">
	<path style="fill:#E6F6FF;" d="M1979.974,1685.316c0,0,266.613-99.341,241.379-283.851
		c-34.652-253.373-239.431-274.63-247.554-406.288c-8.996-145.803,31.243-320.028-139.114-406.65
		c-235.891-119.945-427.803,163.924-623.713,83.961c-363.521-148.376-591.823,312.779-375.534,596.004
		c163.809,228.104,83.845,412.936,83.845,412.936L1979.974,1685.316z"/>
	<path style="fill:#0C3066;" d="M389.592,1697.837h2072.895c2.986,0,5.406-2.421,5.406-5.407l0,0c0-2.986-2.421-5.407-5.406-5.407
		H389.592c-2.986,0-5.407,2.421-5.407,5.407l0,0C384.185,1695.416,386.606,1697.837,389.592,1697.837z"/>
</g>
<g id="police">
	<g>
		<g>
			<path style="fill:#F7A594;" d="M1259.762,956.731l156.573,5.731l134.691,4.432l-0.302,20.452
				c-47.575,16.048-84.537,19.921-131.291,21.368c-47.89,13.634-110.847,21.294-159.35,22.604
				C1217.482,1031.5,1217.162,956.913,1259.762,956.731z"/>
			<g>
				<path style="fill:#F7A594;" d="M1551.026,966.892l58.332,0.001c0,0,0,2.309-5.047,3.372c-5.047,1.063-24.173,3.984-24.173,3.984
					c7.78,1.806,5.207,6.287,3.188,10.626c0,0-5.313,10.891-9.563,11.688c-4.25,0.797-29.539-10.072-30.283-10.361
					C1534.483,982.688,1540.158,966.812,1551.026,966.892z"/>
				<path style="fill:#D97B69;" d="M1575.827,995.707c-0.081,0-0.163-0.032-0.224-0.095c-0.12-0.124-0.117-0.321,0.006-0.441
					c6.896-6.69,8.854-13.287,9.108-14.235c-0.271-0.453-1.481-2.283-3.402-2.39c-0.014,0-0.028-0.001-0.043-0.001
					c-0.937,0-2.617,1.607-4.102,3.027c-1.754,1.677-3.419,3.266-4.563,3.111c-0.353-0.046-0.635-0.239-0.84-0.575
					c-1.522-2.492,0.932-9.154,1.036-9.437l0.065-0.175l0.186-0.025l28.231-3.837c0.176-0.027,0.328,0.096,0.352,0.267
					c0.022,0.171-0.097,0.328-0.268,0.351l-28.044,3.812c-0.376,1.065-2.266,6.689-1.025,8.719c0.137,0.225,0.286,0.268,0.387,0.281
					c0.871,0.098,2.554-1.512,4.051-2.944c1.757-1.679,3.443-3.253,4.611-3.198c2.538,0.141,3.92,2.713,3.978,2.822l0.054,0.103
					l-0.026,0.113c-0.017,0.072-1.756,7.328-9.311,14.658C1575.983,995.678,1575.905,995.707,1575.827,995.707z"/>
			</g>
			<path style="fill:#13305C;" d="M1329.353,955.295c-18.778-1.172-74.129-9.468-108.96-6.884
				c-31.916,11.521-26.505,66.553-12.51,75.774c-0.107,1.544,60.037,21.169,122.416,5.761
				C1340.035,1019.493,1339.182,966.571,1329.353,955.295z"/>
			<path style="fill:#1D498C;" d="M1338.507,1032.459c-9.911,3.052-19.18,4.859-25.917,1.753
				c-4.075,0.017-5.052-82.109-0.978-82.127l25.673-0.11C1345.435,951.939,1346.657,1032.423,1338.507,1032.459z"/>
		</g>
		<g>
			<g>
				<path style="fill:#231F20;" d="M956.225,1691.125h72.083c1.444-0.847,2.495-1.805,3.093-2.895
					c1.148-53.611,5.259-79.423,5.259-79.423l-50.301-2.044l-9.456,39.883C960.634,1658.141,941.763,1682.802,956.225,1691.125z"/>
				<path style="fill:#231F20;" d="M1033.819,1692.092h-85.459c-2.167,0-2.008-11.885,0.159-11.885l84.972,0.479
					C1035.72,1680.685,1036.049,1692.092,1033.819,1692.092z"/>
			</g>
			<path style="fill:#13305C;" d="M1024.97,1128.602c-5.102,39.688-26.914,137.72-24.563,245.522
				c-23.619,137.392-26.219,167.651-29.085,252.391l72.052,2.695c11.531-59.177,35.199-152.582,45.919-243.715
				c23.286-71.81,38.544-174.157,46.041-255.418C1142.892,1060.041,1043.884,1031.727,1024.97,1128.602z"/>
			<path style="fill:#231F20;" d="M1006.546,1629.864l-1.474-0.02c0.13-9.771,29.407-340.178,59.149-474.14l1.438,0.32
				C1035.936,1289.908,1006.676,1620.101,1006.546,1629.864z"/>
		</g>
		<g>
			<path style="fill:#13305C;" d="M1097.376,1133.443c10.153,136.692,40.075,252.799,40.075,252.799
				c-5.856,93.26,10.683,182.806,22.447,244.06l68.544-0.614c3.972-59.968-4.511-384.592-22.245-494.688
				C1197.743,1037.655,1085.151,1032.448,1097.376,1133.443z"/>
			<path style="fill:#231F20;" d="M1172.871,1630.301c-3.068,22.091-5.203,39.324-2.515,59.317l112.096,2.18
				c0,0,10.569-10.797-4.143-26.991c-14.712-16.194-40.731-6.825-59.226-35.12L1172.871,1630.301z"/>
			<path style="fill:#231F20;" d="M1287.552,1692.092h-118.984c-2.167,0-2.167-11.885,0-11.885l118.503,0.479
				C1289.301,1680.685,1289.782,1692.092,1287.552,1692.092z"/>
			
				<rect x="1200.026" y="1156.604" transform="matrix(0.9988 -0.0497 0.0497 0.9988 -67.6958 61.3532)" style="fill:#231F20;" width="1.473" height="472.633"/>
		</g>
		<path style="fill:#13305C;" d="M1193.698,1209.773l-158.853-81.825c6.107-107.499,44.429-185.098,72.824-196.456
			c67.848-27.139,133.824,3.247,159.82,37.316c10.324,13.53,10.999,73.985-9.715,113.451c-10.115,18.067-17.376,30.257-27.765,43.29
			C1219.621,1138.582,1193.698,1209.773,1193.698,1209.773z"/>
		<path style="fill:#F7A594;" d="M1210.914,978.617c-3.606-9.944-26.423-35.905-30.135-46.638l31.749-47.803l29.323,14.333
			c7.616,5.604,14.455,12.465,19.678,19.436l-13.566,35.994l-2.918,7.82C1243.953,970.549,1232.652,975.006,1210.914,978.617z"/>
		<path style="fill:#E6836F;" d="M1215.033,900.963c0.229,9.35,7.872,37.636,32.931,52.974l11.737-31.141L1215.033,900.963z"/>
		<g>
			<g>
				<path style="fill:#F7A594;" d="M1308.469,851.468c-0.886,11.549-3.16,36.801-7.338,47.469
					c-6.361,16.241-27.559,29.905-41.844,28.161c-16.167-3.223-35.863-14.388-44.306-27.775
					c-4.085-9.447-10.985-30.999-11.895-48.288c-1.898-36.061,29.746-57.442,60.821-55.072
					C1294.98,798.333,1311.231,815.463,1308.469,851.468z"/>
				<path style="fill:#4D261C;" d="M1206.234,875.441c-2.78-12.528,6.601-14.373,12.881-3.379
					c0.966-8.511-0.959-34.911,9.572-40.231c11.968-6.249,51.145,10.118,79.801-5.834c0,0-5.269-40.434-64.794-35.816
					C1173.963,803.536,1206.234,875.441,1206.234,875.441z"/>
				<path style="fill:#F7A594;" d="M1216.866,867.612c2.873,6.993,0.79,14.458-4.653,16.672c-5.443,2.215-12.185-1.659-15.058-8.652
					c-2.873-6.993-0.79-14.458,4.653-16.673C1207.251,856.745,1213.993,860.619,1216.866,867.612z"/>
			</g>
			<path style="fill:#13305C;" d="M1308.533,827.62c-6.111-4.139-96.269,3.083-95.993,9.699c0,0,58.09,18.156,103.682,12.244
				C1341.109,846.336,1308.533,827.62,1308.533,827.62z"/>
			<path style="fill:#1D498C;" d="M1198.849,838.727l110.24-11.122l0.915-14.85l-116.503,10.865
				C1194.088,828.999,1196.038,835.24,1198.849,838.727z"/>
			<path style="fill:#13305C;" d="M1189.737,825.83c-11.927,0.786-15.641-7.493-1.043-16.585
				c22.518-14.025,48.931-59.487,76.363-60.768c18.905-0.882,25.657,23.015,44.45,42.347c8.523,8.768,12.455,16.407,6.493,22.124
				C1301.635,818.102,1202.226,825.008,1189.737,825.83z"/>
			<g>
				<path style="fill:#F7BD0C;" d="M1280.064,773.282c-0.021-0.351-0.032-0.528-0.037-0.611c-2.526-0.405-4.991-1.18-7.212-2.225
					c-2.221-1.043-4.197-2.356-5.747-3.832l0,0h0c-0.006,0.008-0.014,0.015-0.02,0.023c-0.68,0.823-1.467,1.618-2.342,2.37
					c-1.165,1-2.497,1.913-3.927,2.722c-0.719,0.407-1.455,0.796-2.224,1.141c-1.149,0.516-2.346,0.957-3.572,1.309
					c0.013,0.207,0.061,1.003,0.222,3.638c0.032,0.527,0.069,1.128,0.111,1.812c0.021,0.342,0.043,0.705,0.067,1.09
					c0.07,1.156,0.153,2.511,0.25,4.099c0.129,2.118,0.63,4.012,1.369,5.696c0.246,0.561,0.519,1.098,0.814,1.613
					c0.884,1.544,1.961,2.883,3.101,4.029c1.139,1.146,2.34,2.101,3.469,2.878c1.506,1.036,2.885,1.755,3.822,2.193
					c0.469,0.219,0.827,0.367,1.035,0.449c0.509-0.294,1.884-1.095,3.513-2.4c0.652-0.523,1.344-1.126,2.037-1.811
					c0.347-0.342,0.694-0.705,1.036-1.087c2.741-3.062,5.192-7.418,4.847-13.068
					C1280.289,776.958,1280.129,774.336,1280.064,773.282z"/>
				<path style="fill:#FFFFFF;" d="M1276.281,783.693c0.253,4.479-3.189,8.313-7.688,8.563c-4.499,0.251-8.352-3.176-8.605-7.655
					c-0.253-4.479,3.189-8.313,7.688-8.563C1272.176,775.787,1276.028,779.214,1276.281,783.693z"/>
			</g>
			<path style="fill:#BF5847;" d="M1272.457,889.886c-2.889,0-4.846-0.898-4.968-0.955c-0.294-0.139-0.421-0.489-0.283-0.784
				c0.138-0.295,0.49-0.42,0.785-0.285c0.041,0.019,4.127,1.875,9.088-0.017c0.3-0.114,0.525-0.361,0.688-0.754
				c1.762-4.251-4.853-20.822-7.55-26.849c-0.133-0.298,0-0.647,0.298-0.78c0.298-0.133,0.648,0,0.78,0.298
				c0.404,0.904,9.879,22.195,7.563,27.783c-0.29,0.7-0.747,1.172-1.358,1.405C1275.656,889.651,1273.934,889.886,1272.457,889.886z
				"/>
			<path style="fill:#BF5847;" d="M1273.08,910.221c-0.078,0-0.156-0.016-0.232-0.048c-0.3-0.128-0.439-0.475-0.311-0.775
				c0.399-0.932,0.347-1.774-0.16-2.576c-3.852-6.089-29.965-7.146-30.229-7.156c-0.326-0.013-0.58-0.287-0.568-0.613
				c0.013-0.326,0.286-0.574,0.613-0.568c1.101,0.042,27,1.096,31.182,7.705c0.72,1.139,0.804,2.374,0.248,3.672
				C1273.527,910.087,1273.31,910.221,1273.08,910.221z"/>
			<g>
				<path style="fill:#4F241D;" d="M1250.527,860.503c0,1.943-1.181,3.518-2.639,3.518c-1.457,0-2.638-1.575-2.638-3.518
					c0-1.943,1.181-3.518,2.638-3.518C1249.346,856.985,1250.527,858.56,1250.527,860.503z"/>
				<path style="fill:#4F241D;" d="M1238.495,851.862c0,0,11.094,3.372,19.129,8.951c2.001-1.788-9.029-11.825-14.701-13.192
					L1238.495,851.862z"/>
			</g>
			<g>
				<path style="fill:#4F241D;" d="M1294.377,862.514c0,1.943-1.181,3.518-2.639,3.518s-2.639-1.575-2.639-3.518
					c0-1.943,1.181-3.518,2.639-3.518S1294.377,860.571,1294.377,862.514z"/>
				<path style="fill:#4F241D;" d="M1302.058,856.916c0,0-11.567,0.804-20.647,4.444c-1.55-2.19,11.445-9.505,17.279-9.568
					L1302.058,856.916z"/>
			</g>
		</g>
		<g>
			<path style="fill:#231F20;" d="M1218.593,964.721l-1.324,12.399l6.968-9.75l-3.908,20.162c0.135-3.66-3.623-9.262-3.623-9.262
				s-7.301-0.89-13.888,3.626L1218.593,964.721z"/>
			<path style="fill:#1D498C;" d="M1188.344,920.432c1.408,13.01,19.912,32.715,30.249,44.288l-15.775,17.176
				c-12.054-14.502-28.135-32.44-25.751-56.074C1178.124,919.642,1182.197,918.355,1188.344,920.432z"/>
			<path style="fill:#1D498C;" d="M1248.528,953.233c-2.649,2.791-10.909,15.041-24.292,14.137l-3.908,20.162
				c18.848,0.603,24.127-6.335,29.115-19.244C1251.402,963.14,1252.902,957.251,1248.528,953.233z"/>
		</g>
		<path style="fill:#231F20;" d="M1126.051,1180.014c-0.106,0-0.214-0.023-0.316-0.072c-0.367-0.175-0.523-0.614-0.348-0.981
			c7.352-15.438,16.714-33.483,26.626-52.588c27.005-52.05,57.613-111.044,63.967-148.226c0.068-0.401,0.451-0.673,0.85-0.602
			c0.401,0.068,0.671,0.449,0.602,0.85c-6.392,37.409-37.057,96.511-64.111,148.657c-9.906,19.093-19.263,37.127-26.604,52.542
			C1126.591,1179.858,1126.327,1180.014,1126.051,1180.014z"/>
		<path style="fill:#231F20;" d="M1030.474,1119.706c30.78,18.782,182.398,33.896,188.786,31.435
			c8.495,0.553,7.393,31.245,0.735,36.792c-10.175,8.477-203.102-24.22-206.195-33.379
			C1010.708,1145.395,1021.78,1114.401,1030.474,1119.706z"/>
		<g>
			<g>
				<path style="fill:#F7BD0C;" d="M1244.025,1045.514c0.145-0.31,0.217-0.467,0.252-0.54c-1.974-1.516-3.724-3.321-5.14-5.243
					c-1.417-1.921-2.5-3.959-3.141-5.939l0,0l0,0c-0.009,0.004-0.019,0.007-0.028,0.011c-0.963,0.389-2.006,0.705-3.103,0.943
					c-1.461,0.316-3.023,0.48-4.623,0.51c-0.804,0.015-1.614,0.007-2.432-0.054c-1.222-0.091-2.451-0.268-3.664-0.534
					c-0.085,0.183-0.413,0.886-1.497,3.215c-0.217,0.466-0.464,0.997-0.746,1.602c-0.141,0.302-0.29,0.623-0.448,0.963
					c-0.475,1.021-1.033,2.219-1.687,3.622c-0.872,1.872-1.321,3.724-1.469,5.506c-0.049,0.594-0.065,1.18-0.052,1.757
					c0.04,1.73,0.342,3.374,0.785,4.882c0.443,1.508,1.029,2.881,1.635,4.068c0.808,1.584,1.655,2.838,2.254,3.646
					c0.299,0.405,0.537,0.697,0.678,0.863c0.572-0.016,2.12-0.064,4.119-0.427c0.8-0.145,1.672-0.341,2.583-0.605
					c0.456-0.132,0.921-0.282,1.391-0.45c3.765-1.349,7.882-3.941,10.206-8.933
					C1242.513,1048.762,1243.592,1046.445,1244.025,1045.514z"/>
			</g>
			
				<rect x="1199.57" y="1070.732" transform="matrix(0.8984 0.4391 -0.4391 0.8984 595.1886 -425.2621)" style="fill:#1D498C;" width="34.493" height="6.325"/>
		</g>
		<path style="fill:#231F20;" d="M1133.377,1229.066h-10.542l0.214-0.906c4.732-20.02,5.381-68.718,5.387-69.207l1.474,0.018
			c-0.006,0.484-0.638,47.929-5.219,68.623h7.484c0.97-4.902,7.529-39.404,5.875-67.393l1.471-0.088
			c1.788,30.246-5.943,67.988-6.021,68.366L1133.377,1229.066z"/>
		<g>
			<path style="fill:#F7A594;" d="M1052.758,1049.967c0,0-13.688,78.516,0.51,106.161c14.672,28.568,149.555,34.483,149.555,34.483
				l4.742-40.601l-92.994-23.368l20.046-60.155L1052.758,1049.967z"/>
			<path style="fill:#13305C;" d="M1087.491,948.95c0,0-39.068,47.893-40.493,116.375c51.152,37.115,84.739,10.215,84.739,10.215
				s25.739-68.502,19.922-101.791C1145.842,940.459,1099.058,936.834,1087.491,948.95z"/>
			<path style="fill:#1D498C;" d="M1048.692,1044.804c6.933,8.4,86.337,24.638,87.957,15.395c2.23,8.824,1.777,17.427-5.323,25.48
				c-1.991,12.838-88.067-0.478-86.076-13.316C1040.231,1064.432,1041.38,1055.244,1048.692,1044.804z"/>
			<path style="fill:#231F20;" d="M1136.649,1060.936c-0.127,0-0.255-0.033-0.373-0.102c-0.351-0.207-0.468-0.658-0.262-1.009
				c5.706-9.715,10.48-22.836,13.1-36c0.08-0.399,0.47-0.659,0.866-0.579c0.399,0.079,0.658,0.468,0.579,0.866
				c-2.65,13.319-7.489,26.608-13.274,36.459C1137.147,1060.805,1136.901,1060.936,1136.649,1060.936z"/>
		</g>
		<g>
			<g>
				<g>
					<g>
						<path style="fill:#D9FFFF;" d="M1146.162,1054.927L1146.162,1054.927c0.004-0.467,0.006-0.673,0.006-0.72
							C1146.167,1054.294,1146.162,1054.927,1146.162,1054.927z"/>
						<path style="fill:#D9FFFF;" d="M1146.162,1054.927L1146.162,1054.927c0.004-0.467,0.006-0.673,0.006-0.72
							C1146.167,1054.294,1146.162,1054.927,1146.162,1054.927z"/>
						<path style="fill:#D9FFFF;" d="M1426.112,1057.368c0,0,0.006-0.633,0.006-0.72
							C1426.118,1056.695,1426.116,1056.901,1426.112,1057.368L1426.112,1057.368z"/>
						<path style="fill:#D9FFFF;" d="M1426.112,1057.368c0,0,0.006-0.633,0.006-0.72
							C1426.118,1056.695,1426.116,1056.901,1426.112,1057.368L1426.112,1057.368z"/>
						<path style="fill:#FFFFFF;" d="M1287.039,980.24c-32.775,34.646-84.955,62.933-140.713,74.841
							c-0.033,3.703-0.214,24.221-1.048,118.789c-1.113,126.154,119.237,188.317,137.922,197.858
							c18.18-8.236,140.585-69.267,141.697-195.42c0.834-94.569,1.015-115.086,1.048-118.789
							C1370.405,1044.64,1319.198,1015.452,1287.039,980.24z"/>
					</g>
				</g>
				<g>
					<path style="fill:#007880;" d="M1286.607,1003.039c-32.073,29.036-76.432,51.775-125.156,64.065l-0.943,106.886
						c-0.432,48.908,18.897,93.236,57.45,131.759c25.331,25.311,52.012,41.056,65.554,48.143c0.585-0.292,1.227-0.622,1.859-0.946
						l1.514-349.657C1286.792,1003.205,1286.696,1003.124,1286.607,1003.039z"/>
					<path style="fill:#008F99;" d="M1286.884,1003.289l-1.514,349.657c14.145-7.248,39.864-22.246,64.534-46.047
						c39.224-37.844,59.332-81.829,59.763-130.737l0.943-106.888C1362.25,1056.177,1318.418,1032.761,1286.884,1003.289z"/>
				</g>
			</g>
			<g>
				<path style="fill:#FFFFFF;" d="M1229.667,1157.111l-0.358,82.807c-0.04,9.219,113.061,9.701,113.101,0.483l0.359-82.807
					L1229.667,1157.111z M1291.748,1201.35l-0.102,23.469c-0.014,3.126-2.579,5.711-5.72,5.698c-3.193-0.014-5.736-2.62-5.722-5.747
					l0.102-23.523c-4.835-2.193-8.219-7.082-8.195-12.697c0.033-7.682,6.34-13.854,14.057-13.821
					c7.717,0.033,13.918,6.258,13.885,13.94C1300.028,1194.339,1296.653,1199.199,1291.748,1201.35z"/>
				<path style="fill:#FFFFFF;" d="M1332.893,1151.65l-11.449-0.049l0.024-5.576c0.084-19.32-15.639-35.106-35.044-35.188
					c-19.409-0.083-35.268,15.568-35.352,34.888l-0.024,5.576l-11.449-0.049l0.024-5.576c0.111-25.604,21.127-46.345,46.85-46.235
					c25.719,0.11,46.555,21.029,46.444,46.633L1332.893,1151.65z"/>
			</g>
		</g>
	</g>
</g>
<g id="elements">
	<g>
		<g>
			<path style="fill:#B3D0FF;" d="M494.914,709.559H387.401V576.218h107.513V709.559z M390.868,706.092h100.58V579.685h-100.58
				V706.092z"/>
		</g>
		<g>
			
				<rect x="408.64" y="597.163" transform="matrix(-1 -1.224647e-16 1.224647e-16 -1 921.3267 1324.2)" style="fill:#B3D0FF;" width="104.047" height="129.874"/>
			
				<rect x="424.827" y="618.485" transform="matrix(-1 -1.224647e-16 1.224647e-16 -1 903.4734 1245.4174)" style="fill:#005CEA;" width="53.82" height="8.447"/>
			
				<rect x="424.827" y="638.33" transform="matrix(-1 -1.224647e-16 1.224647e-16 -1 919.3902 1285.1077)" style="fill:#005CEA;" width="69.737" height="8.447"/>
			
				<rect x="424.827" y="658.175" transform="matrix(-1 -1.224647e-16 1.224647e-16 -1 919.3902 1324.7979)" style="fill:#005CEA;" width="69.737" height="8.447"/>
			
				<rect x="424.827" y="678.021" transform="matrix(-1 -1.224647e-16 1.224647e-16 -1 919.3902 1364.4883)" style="fill:#005CEA;" width="69.737" height="8.447"/>
			
				<rect x="424.827" y="697.866" transform="matrix(-1 -1.224647e-16 1.224647e-16 -1 919.3902 1404.1785)" style="fill:#005CEA;" width="69.737" height="8.447"/>
		</g>
	</g>
	<g>
		<g>
			<path style="fill:none;stroke:#267BFF;stroke-width:2.9362;stroke-miterlimit:10;" d="M431.955,1113.818
				c4.935-8.219,8.02-17.1,9.326-26.063l2.835,0.417l5.598,0.827l0.073,0.006c1.51-10.255,0.996-20.627-1.471-30.536l-8.327,2.071
				c-2.234-8.965-6.17-17.508-11.78-25.037l6.903-5.153c-5.906-8.053-13.486-15.091-22.535-20.572l-4.446,7.405
				c-8.212-4.974-17.025-8.054-25.949-9.367l1.244-8.542c-10.211-1.518-20.554-0.973-30.404,1.477l2.063,8.364
				c-8.927,2.244-17.432,6.197-24.929,11.831l-5.13-6.932c-8.017,5.931-15.026,13.544-20.483,22.633l7.374,4.466
				c-4.952,8.247-8.02,17.099-9.326,26.063l-6.016-0.89l-2.46-0.342l-0.028-0.017c-1.511,10.254-0.969,20.643,1.47,30.536
				l8.328-2.071c2.234,8.966,6.197,17.525,11.807,25.053l-6.903,5.153c5.906,8.052,13.458,15.075,22.508,20.556l4.446-7.406
				c8.211,4.973,17.053,8.072,25.977,9.384l-0.977,6.637l-0.267,1.904c10.211,1.518,20.526,0.956,30.375-1.494l-2.062-8.364
				c8.926-2.244,17.448-6.224,24.973-11.842l5.13,6.932c7.99-5.948,14.981-13.534,20.438-22.622L431.955,1113.818z
				 M352.279,1110.202c-18.014-10.911-23.802-34.384-12.939-52.477c10.847-18.065,34.218-23.877,52.232-12.966
				c17.986,10.894,23.774,34.366,12.927,52.431C393.637,1115.282,370.266,1121.095,352.279,1110.202z"/>
		</g>
		<g>
			<path style="fill:#005CEA;" d="M541.281,1473.32c-33.918,10.861-72.174-1.534-92.801-32.842
				c-24.859-37.731-14.557-88.555,23.069-113.558c21.408-14.228,47.034-16.952,69.731-9.714v-70.76
				c-17.72-2.945-35.949-2.95-53.861,0.677l-3.586-18.173c-20.967,4.077-41.52,12.347-60.421,24.908l10.19,15.466
				c-17.152,11.401-31.207,25.711-41.952,41.866l-15.331-10.282c-12.325,18.469-20.795,39.093-25.137,60.512l18.03,3.687
				c-3.889,19.435-4.094,39.621-0.126,59.394l-18.094,3.599c4.061,21.058,12.293,41.703,24.799,60.687l15.401-10.236
				c11.349,17.224,25.598,31.343,41.684,42.135l-7.254,10.887l-2.925,4.47l-0.059,0.037c18.388,12.381,38.925,20.889,60.25,25.25
				l3.671-18.11c17.89,3.61,36.458,3.865,54.718,0.757V1473.32z"/>
		</g>
	</g>
	<path style="fill:#B3D0FF;" d="M1350.854,540.965c0.259-1.916,0.44-3.857,0.44-5.844c0-23.899-19.374-43.273-43.273-43.273
		c-17.929,0-33.311,10.904-39.877,26.442c-5.343-4.757-12.363-7.672-20.08-7.672c-16.701,0-30.239,13.538-30.239,30.239h-5.643
		c-16.058,0-29.197,13.138-29.197,29.196v0c0,16.058,13.138,29.196,29.197,29.196H1348.7c16.058,0,29.196-13.138,29.196-29.196v0
		C1377.896,554.721,1365.913,542.081,1350.854,540.965z"/>
</g>
<g id="phone">
	<g>
		<g>
			<path style="fill:#408BFF;" d="M567.655,440.33c-0.587-79.552,150.344-91.231,148.57-49.378l270.949,0.943
				c31.353,0.441,56.666,28.819,56.559,63.365l-3.571,1153.861c-0.105,33.806-25.297,61.204-56.287,61.215l-287.011,1.44
				c-2.755,5.637-7.938,10.745-16.117,14.977c-80.313-0.64-116.815-32.272-117.128-72.998
				C560.623,1606.246,564.421,455.289,567.655,440.33z"/>
			<path style="fill:#0047B3;" d="M595.243,913.807L595.243,913.807c6.653,0.152,12.143-5.106,12.199-11.686l2.574-301.263
				c0.057-6.677-5.382-12.267-12.087-12.421l0,0c-6.705-0.154-12.234,5.184-12.287,11.861l-2.4,301.271
				C583.189,908.149,588.59,913.655,595.243,913.807z"/>
			<g>
				<path style="fill:#B3D1FF;" d="M685.536,1686.967l353.139-0.399c32.089,0.055,58.193-28.061,58.318-62.819l4.292-1186.74
					c0.128-35.541-26.082-64.672-58.556-65.044l-354.166-4.601c-32.739-0.375-59.342,28.285-59.405,63.995l-2.095,1192.297
					C627.003,1658.576,653.188,1686.912,685.536,1686.967z"/>
				<path style="fill:#0D0D0D;" d="M678.396,1678.545c2.138,0.295,4.325,0.444,6.501,0.446l353.052-0.957
					c27.579,0.017,50.247-24.642,50.354-54.985l4.192-1185.439c0.11-31.023-22.649-56.563-50.554-56.913l-354.062-5.172
					c-0.814-0.01-1.636,0-2.445,0.031c-13.091,0.499-25.297,6.361-34.386,16.485c-9.286,10.343-14.403,24.101-14.43,38.758
					l-2.177,1193.503C634.392,1651.772,653.224,1675.078,678.396,1678.545z"/>
				<polygon style="fill:#B3D0FF;" points="654.874,437.122 652.508,1626.239 1071.158,1626.208 1075.166,440.57 				"/>
			</g>
		</g>
		<g>
			<defs>
				<polygon id="SVGID_1_" points="657.371,437.122 655.005,1626.239 1073.655,1626.208 1077.662,440.57 				"/>
			</defs>
			<clipPath id="SVGID_00000096056378189306981510000006137953374911872692_">
				<use xlink:href="#SVGID_1_"  style="overflow:visible;"/>
			</clipPath>
			<g style="clip-path:url(#SVGID_00000096056378189306981510000006137953374911872692_);">
				<path style="fill:#FFFFFF;" d="M1030.682,911.405H699.375c-11.187,0-20.34-9.153-20.34-20.34v-1.155
					c0-11.187,9.153-20.34,20.34-20.34h331.307c11.187,0,20.34,9.153,20.34,20.34v1.155
					C1051.022,902.252,1041.87,911.405,1030.682,911.405z"/>
				<path style="fill:#FFFFFF;" d="M1030.682,978.776H699.375c-11.187,0-20.34-9.153-20.34-20.34v-1.155
					c0-11.187,9.153-20.34,20.34-20.34h331.307c11.187,0,20.34,9.153,20.34,20.34v1.155
					C1051.022,969.623,1041.87,978.776,1030.682,978.776z"/>
				<g>
					<ellipse style="fill:#005CEA;" cx="865.141" cy="691.765" rx="105.954" ry="108.115"/>
					<g>
						<g>
							<path style="fill:#FFFFFF;" d="M865.292,687.414c10.342,0,19.894-5.141,25.995-12.991c4.507-5.683,7.162-12.991,7.162-21.113
								c0-18.674-14.856-34.104-33.157-34.104c-18.567,0-33.422,15.43-33.422,34.104c0,8.121,2.649,15.43,7.162,21.113
								C845.133,682.273,854.678,687.414,865.292,687.414z"/>
						</g>
						<path style="fill:#FFFFFF;" d="M924.02,748.183c0,21.522-117.781,21.522-117.781,0l0.037-25.08
							c4.654-34.286,108.172-35.726,117.767,0L924.02,748.183z"/>
					</g>
				</g>
				<g>
					<path style="fill:#80B2FF;" d="M823.815,896.625h-72.521c-3.283,0-5.969-2.686-5.969-5.969v-0.339
						c0-3.283,2.686-5.969,5.969-5.969h72.521c3.283,0,5.969,2.686,5.969,5.969v0.339
						C829.784,893.94,827.098,896.625,823.815,896.625z"/>
					<path style="fill:#80B2FF;" d="M1000.221,963.943H751.295c-3.283,0-5.969-2.686-5.969-5.969v-0.339
						c0-3.283,2.686-5.969,5.969-5.969h248.927c3.283,0,5.969,2.686,5.969,5.969v0.339
						C1006.19,961.257,1003.504,963.943,1000.221,963.943z"/>
					<path style="fill:#80B2FF;" d="M919.898,896.625h-72.521c-3.283,0-5.969-2.686-5.969-5.969v-0.339
						c0-3.283,2.686-5.969,5.969-5.969h72.521c3.283,0,5.969,2.686,5.969,5.969v0.339
						C925.866,893.94,923.18,896.625,919.898,896.625z"/>
				</g>
				<path style="fill:#FFFFFF;" d="M1030.682,1109.987H699.375c-11.187,0-20.34-9.153-20.34-20.34v-1.155
					c0-11.187,9.153-20.34,20.34-20.34h331.307c11.187,0,20.34,9.153,20.34,20.34v1.155
					C1051.022,1100.834,1041.87,1109.987,1030.682,1109.987z"/>
				<path style="fill:#FFFFFF;" d="M1030.682,1177.359H699.375c-11.187,0-20.34-9.153-20.34-20.34v-1.155
					c0-11.187,9.153-20.34,20.34-20.34h331.307c11.187,0,20.34,9.153,20.34,20.34v1.155
					C1051.022,1168.206,1041.87,1177.359,1030.682,1177.359z"/>
				<g>
					<path style="fill:#80B2FF;" d="M823.815,1095.208h-72.521c-3.283,0-5.969-2.686-5.969-5.969v-0.339
						c0-3.283,2.686-5.969,5.969-5.969h72.521c3.283,0,5.969,2.686,5.969,5.969v0.339
						C829.784,1092.522,827.098,1095.208,823.815,1095.208z"/>
					<path style="fill:#80B2FF;" d="M919.898,1095.208h-72.521c-3.283,0-5.969-2.686-5.969-5.969v-0.339
						c0-3.283,2.686-5.969,5.969-5.969h72.521c3.283,0,5.969,2.686,5.969,5.969v0.339
						C925.866,1092.522,923.18,1095.208,919.898,1095.208z"/>
					<path style="fill:#80B2FF;" d="M998.264,1095.208h-54.338c-3.283,0-5.969-2.686-5.969-5.969v-0.339
						c0-3.283,2.686-5.969,5.969-5.969h54.338c3.283,0,5.969,2.686,5.969,5.969v0.339
						C1004.232,1092.522,1001.546,1095.208,998.264,1095.208z"/>
				</g>
				<ellipse style="fill:#FFFFFF;" cx="758.161" cy="1026.131" rx="19.637" ry="20.768"/>
				<path style="fill:#80B2FF;" d="M765.124,1026.131c0,4.067-3.118,7.364-6.963,7.364c-3.846,0-6.964-3.297-6.964-7.364
					c0-4.067,3.118-7.364,6.964-7.364C762.007,1018.766,765.124,1022.063,765.124,1026.131z"/>
				<ellipse style="fill:#FFFFFF;" cx="880.26" cy="1026.131" rx="19.637" ry="20.768"/>
				<ellipse style="fill:#80B2FF;" cx="880.26" cy="1026.131" rx="6.963" ry="7.364"/>
				<path style="fill:#73AAFF;" d="M841.244,1032.269h-50.513c-3.283,0-5.969-2.686-5.969-5.969v-0.339
					c0-3.283,2.686-5.969,5.969-5.969h50.513c3.283,0,5.969,2.686,5.969,5.969v0.339
					C847.212,1029.583,844.526,1032.269,841.244,1032.269z"/>
				<path style="fill:#73AAFF;" d="M970.564,1032.269h-50.513c-3.283,0-5.969-2.686-5.969-5.969v-0.339
					c0-3.283,2.686-5.969,5.969-5.969h50.513c3.283,0,5.969,2.686,5.969,5.969v0.339
					C976.533,1029.583,973.847,1032.269,970.564,1032.269z"/>
				<g>
					<path style="fill:#005CEA;" d="M988.477,1412.648l-246.748,0c-5.354,0-9.694-4.34-9.694-9.694v-148.935
						c0-5.354,4.34-9.694,9.694-9.694l246.747,0c5.354,0,9.694,4.34,9.694,9.694v148.935
						C998.171,1408.308,993.831,1412.648,988.477,1412.648z"/>
					<rect x="732.036" y="1276.114" style="fill:#5896FA;" width="266.135" height="29.045"/>
					<path style="fill:#D1F5FF;" d="M792.996,1380.354h-39.13c-2.487,0-4.504,2.132-4.504,4.763v0c0,2.63,2.016,4.763,4.504,4.763
						h39.13c2.487,0,4.504-2.133,4.504-4.763l0,0C797.499,1382.486,795.483,1380.354,792.996,1380.354z"/>
					<path style="fill:#D1F5FF;" d="M853.171,1380.354h-39.13c-2.487,0-4.504,2.132-4.504,4.763l0,0
						c0,2.631,2.016,4.763,4.504,4.763l39.13,0c2.487,0,4.504-2.132,4.504-4.763l0,0
						C857.674,1382.486,855.658,1380.354,853.171,1380.354z"/>
					<path style="fill:#D1F5FF;" d="M913.346,1380.354h-39.13c-2.487,0-4.504,2.132-4.504,4.763l0,0
						c0,2.631,2.016,4.763,4.504,4.763h39.13c2.487,0,4.504-2.133,4.504-4.763l0,0
						C917.849,1382.486,915.833,1380.354,913.346,1380.354z"/>
					<path style="fill:#D1F5FF;" d="M973.521,1380.354h-39.13c-2.487,0-4.504,2.132-4.504,4.763l0,0c0,2.63,2.016,4.763,4.504,4.763
						h39.13c2.487,0,4.504-2.133,4.504-4.763l0,0C978.024,1382.486,976.008,1380.354,973.521,1380.354z"/>
					<path style="fill:#D1F5FF;" d="M752.063,1252.868L752.063,1252.868c-2.745,0-4.971,2.354-4.971,5.257v1.847
						c0,2.903,2.225,5.257,4.971,5.257l0,0c2.745,0,4.971-2.354,4.971-5.257v-1.847
						C757.033,1255.222,754.808,1252.868,752.063,1252.868z"/>
					<path style="fill:#D1F5FF;" d="M762.772,1259.048L762.772,1259.048c0,3.413,2.616,6.18,5.844,6.18h20.712
						c3.227,0,5.844-2.767,5.844-6.18l0,0c0-3.413-2.616-6.18-5.844-6.18h-20.712
						C765.388,1252.868,762.772,1255.635,762.772,1259.048z"/>
					<path style="fill:#5896FA;" d="M760.275,1320.783h26.31c4.409,0,7.984,3.574,7.984,7.984v24.845
						c0,4.409-3.574,7.984-7.984,7.984h-26.31c-4.409,0-7.984-3.574-7.984-7.984v-24.845
						C752.292,1324.358,755.866,1320.783,760.275,1320.783z"/>
				</g>
			</g>
			<path style="clip-path:url(#SVGID_00000096056378189306981510000006137953374911872692_);fill:#80B2FF;" d="M1008.101,1162.359
				H759.174c-3.283,0-5.969-2.686-5.969-5.969v-0.339c0-3.283,2.686-5.969,5.969-5.969h248.927c3.283,0,5.969,2.686,5.969,5.969
				v0.339C1014.069,1159.673,1011.383,1162.359,1008.101,1162.359z"/>
		</g>
		<g>
			<circle style="fill:#267BFF;" cx="760.632" cy="1563.079" r="11.245"/>
			<circle style="fill:#267BFF;" cx="813.483" cy="1563.079" r="11.245"/>
			<circle style="fill:#267BFF;" cx="866.333" cy="1563.079" r="11.245"/>
			<circle style="fill:#267BFF;" cx="919.184" cy="1563.079" r="11.245"/>
			<circle style="fill:#267BFF;" cx="972.035" cy="1563.079" r="11.245"/>
		</g>
	</g>
</g>
<g id="thief">
	<g>
		<g>
			<g>
				<path style="fill:#B3B3B3;" d="M1867.546,1408.828l-34.965-12.802c-12.819-7.109-25.685,16.084-12.866,23.194l31.424,19.249
					C1859.298,1442.985,1875.706,1413.344,1867.546,1408.828z"/>
				<path style="fill:#0D0D0D;" d="M2083.258,1308.896c-31.722,40.005-56.991,91.651-85.547,141.307
					c-28.797-16.702-58.442-19.753-129.795-44.824c-15.237-0.828-29.391,26.149-17.209,37.949c0,0,113.188,94.079,159.849,86.774
					s140.769-142.455,156.879-163.625C2196.997,1327.628,2137.463,1255.031,2083.258,1308.896z"/>
				<path style="fill:#0D0D0D;" d="M1865.922,1408.245l-13.95-5.145c-6.785,0.299-17.597,19.317-12.391,28.124l13.353,8.371
					L1865.922,1408.245z"/>
			</g>
			<g>
				<path style="fill:#0D0D0D;" d="M1786.605,1426.998l28.867-3.648c4.425-25.542,28.125-13.317,25.839-25.074
					c-2.286-11.757-19.646-30.974-19.646-30.974l-72.585,53.251C1749.079,1420.552,1746.334,1441.665,1786.605,1426.998z"/>
				<path style="fill:#0D0D0D;" d="M1786.605,1426.998c11.602-0.841,23.832-0.535,30.432,2.566
					c7.103,3.336,13.341-11.362,2.723-14.483C1809.142,1411.961,1793.66,1416.595,1786.605,1426.998z"/>
			</g>
		</g>
		<g>
			<g>
				<path style="fill:#B3B3B3;" d="M2315.708,1627.282l22.975,29.302c7.15,12.796,30.305-0.139,23.155-12.935l-17.446-32.425
					C2339.836,1603.086,2311.152,1619.145,2315.708,1627.282z"/>
				<path style="fill:#0D0D0D;" d="M2119.019,1388.486c31.536,40.152,99.975,106.975,99.975,106.975s53.25,98.516,94.583,134.558
					c12.514,8.732,38.757-6.742,34.619-23.189c0,0-60.545-138.079-77.074-164.203c-16.53-26.124-59.688-102.039-76.534-122.628
					C2163.675,1282.216,2079.229,1323.245,2119.019,1388.486z"/>
				<path style="fill:#0D0D0D;" d="M2315.13,1628.696c0,0,4.083,10.109,8.755,11.284c4.673,1.175,26.576-12.17,27.067-18.34
					s-5.569-12.496-5.569-12.496L2315.13,1628.696z"/>
			</g>
			<g>
				<path style="fill:#0D0D0D;" d="M2386.738,1634.09l-29.081,0.947c-6.782,25.019-29.242,10.642-28.06,22.561
					c1.183,11.918,16.679,32.667,16.679,32.667l77.225-46.266C2423.501,1643.999,2428.199,1623.233,2386.738,1634.09z"/>
				<path style="fill:#0D0D0D;" d="M2386.738,1634.09c-11.63-0.242-23.778-1.685-30.061-5.387
					c-6.762-3.982-14.341,10.072-4.059,14.166C2362.899,1646.964,2378.745,1643.791,2386.738,1634.09z"/>
			</g>
		</g>
		<path style="fill:#0C3066;" d="M2213.842,1348.124c16.323-51.005,31.343-112.651,31.215-144.523
			c-0.248-61.616-78.454-64.497-106.697-39.311c-23.755,19.612-45.281,65.668-62.068,125.412
			c-16.417,18.688-20.531,37.696-18.197,56.146C2075.905,1365.265,2175.292,1382.135,2213.842,1348.124z"/>
		<g>
			<path style="fill:#0C3066;" d="M2256.897,1197.353l57.229,43.399c2.538-13.105,41.863-56.427,59.634-59.336l20.773,17.369
				c13.655,16.935-48.95,99.211-74.019,105.715c-40.365,15.08-118.544-60.412-118.544-60.412
				C2165.835,1218.552,2208.235,1153.026,2256.897,1197.353z"/>
			<path style="fill:#0C3066;" d="M2394.136,1206.336c0,0,7.994-0.45,7.009-8.616c-0.737-6.106-27.166-27.83-35.314-16.13
				C2360.523,1189.213,2385.924,1208.28,2394.136,1206.336z"/>
			<g>
				<path style="fill:#F7A594;" d="M2418.638,1167.092c-1.357,2.181-3.018,4.347-4.703,6.298c-1.88,2.188-3.834,4.035-5.569,5.032
					c-9.177,3.335-21.396-3.536-25.386-13.172c-0.822-2.186-1.076-4.777-0.861-7.499c0.552-5.503,2.791-11.606,4.605-15.792
					c0.035-0.091,0.07-0.181,0.07-0.181c0.786-1.777,1.398-3.1,1.746-4.006c0.069-0.18,0.104-0.271,0.229-0.327
					c0.264-0.417,0.334-0.599,0.334-0.599c3.756-5.728,33.981,13.251,32.971,22.109
					C2421.727,1161.211,2420.399,1164.131,2418.638,1167.092z"/>
				<path style="fill:#D9D9D9;" d="M2369.94,1144.949l50.96,33.743c-0.766,5.295,1.403,10.807,6.128,14.013
					c4.724,3.206,10.647,3.184,15.285,0.516l-10.707-7.264l7.28-10.729l10.519,7.137c0.571-5.147-1.59-10.43-6.174-13.54
					c-4.725-3.206-10.649-3.183-15.285-0.516l-50.96-33.743c0.766-5.295-1.402-10.806-6.128-14.013
					c-4.725-3.205-10.647-3.184-15.285-0.516l10.707,7.264l-7.28,10.729l-10.519-7.137c-0.571,5.147,1.59,10.429,6.174,13.54
					C2359.379,1147.639,2365.303,1147.618,2369.94,1144.949z"/>
				<path style="fill:#F7A594;" d="M2387.202,1140.859c0,0-4.337,7.82,11.284,17.372c15.622,9.553,21.448,6.775,23.031,2.882
					C2423.099,1157.22,2390.753,1129.105,2387.202,1140.859z"/>
				<path style="fill:#F7A594;" d="M2382.404,1165.35c-3.282-5.599-6.828-16.808-3.313-22.367
					c4.296-6.793,22.606,2.874,27.165,6.116c1.404,5.845-7.62,6.029-12.612,2.62c6.796,9.904,8.934,20.352,3.769,20.85
					C2392.248,1173.069,2385.686,1170.949,2382.404,1165.35z"/>
				<path style="fill:#F7A594;" d="M2398.296,1196.145c-4.066,2.949-25.753-11.812-21.948-15.966l17.719-20.672l18.442,13.416
					L2398.296,1196.145z"/>
				<path style="fill:#CC6B58;" d="M2400.188,1167.302c-0.252,0-0.466-0.196-0.482-0.452c-0.449-6.581-6.054-14.303-6.43-14.813
					c-0.021-0.026-0.032-0.044-0.036-0.051c-0.144-0.219-0.088-0.513,0.127-0.663c0.215-0.146,0.51-0.103,0.666,0.106
					c0.008,0.01,0.019,0.025,0.035,0.047c0.159,0.192,1.508,1.646,6.032,1.956c2.4,0.164,4.047-0.199,4.902-1.082
					c0.63-0.648,0.89-1.627,0.79-2.987c-8.207-5.899-18.579-8.008-18.685-8.028c-0.263-0.052-0.433-0.308-0.381-0.57
					c0.053-0.262,0.305-0.437,0.57-0.381c0.106,0.021,10.834,2.198,19.244,8.325c0.112,0.081,0.184,0.207,0.197,0.345
					c0.174,1.774-0.167,3.073-1.04,3.973c-1.08,1.111-2.936,1.559-5.665,1.373c-2.097-0.144-3.581-0.527-4.616-0.947
					c1.847,2.873,4.914,8.329,5.255,13.332c0.019,0.268-0.184,0.499-0.45,0.517
					C2400.21,1167.301,2400.199,1167.302,2400.188,1167.302z"/>
			</g>
		</g>
		<g>
			<g>
				<path style="fill:#F7A594;" d="M1992.425,1263.879c0.638-2.474,1.527-5.021,2.481-7.368c1.062-2.63,2.258-4.954,3.456-6.403
					c6.754-5.805,18.164-2.705,23.469,5.384c1.136,1.859,1.896,4.267,2.302,6.934c0.727,5.426,0.209,11.905-0.373,16.429
					c-0.009,0.097-0.018,0.193-0.018,0.193c-0.26,1.925-0.475,3.365-0.564,4.332c-0.018,0.192-0.027,0.289-0.117,0.378
					c-0.126,0.475-0.144,0.668-0.144,0.668c-1.832,6.553-30.479-3.013-31.549-11.781
					C1991.168,1270.387,1991.625,1267.214,1992.425,1263.879z"/>
				<path style="fill:#F7A594;" d="M2022.278,1255.232c3.867,4.426,9.146,14.147,7.474,20.47
					c-2.044,7.726-19.007,3.683-23.409,1.877c-2.391-5.196,4.911-7.94,9.701-6.098c-7.645-7.547-11.618-16.94-7.521-18.888
					C2012.62,1250.645,2018.411,1250.807,2022.278,1255.232z"/>
				<path style="fill:#F7A594;" d="M2004.228,1230.41c3.116-3.941,27.99,4.395,25.452,9.424l-11.458,24.699l-21.387-7.919
					L2004.228,1230.41z"/>
			</g>
			<path style="fill:#0C3066;" d="M2138.077,1203.363l-67.214-28.027c1.463,13.268-26.187,62.446-42.296,70.495l-24.99-10.426
				c-18.063-12.123,17.319-109.266,39.329-122.913c34.075-26.375,146.471,40.182,146.471,40.182
				C2227.312,1175.454,2191.247,1231.429,2138.077,1203.363z"/>
			<path style="fill:#0C3066;" d="M2001.717,1228.076c0,0-7.501,2.801-4.137,10.307c2.515,5.612,34.198,18.519,38.509,4.929
				C2038.896,1234.459,2008.983,1223.784,2001.717,1228.076z"/>
		</g>
		<g>
			<g>
				<path style="fill:#F7A594;" d="M2250.432,1113.389c6.529,5.415,10.429,12.257,7.216,18.065l-11.04,17.523l-21.89,34.58
					c-6.679,11.239-48.712-21.068-42.009-32.363l33.313-42.501C2221.295,1099.049,2239.582,1104.29,2250.432,1113.389z"/>
				<path style="fill:#153566;" d="M2197.86,1131.87c0,0,0.74,8.068,22.172,17.669c17.993,8.06,22.889,5.195,22.889,5.195
					s3.67,3.765-1.919,10.998c-4.143,16.07-10.761,30.345-26.656,34.095c-16.708,3.943-58.346-22.016-42.876-43.726
					c9.316-8.278,15.008-14.186,15.008-14.186S2189.598,1131.928,2197.86,1131.87z"/>
				<path style="fill:#F7785E;" d="M2250.432,1113.389c6.529,5.415,10.429,12.257,7.216,18.065l-13.972,22.088
					c-16.953-6.662-21.24-34.337-21.24-34.337L2250.432,1113.389z"/>
			</g>
			<g>
				<g>
					<g>
						<path style="fill:#F7A594;" d="M2321.983,1065.804c8.761,34.819-15.06,80.708-45.397,88.341
							c-30.337,7.633-55.702-25.881-64.462-60.7c-8.761-34.819,8.73-69.233,39.067-76.866
							C2281.528,1008.947,2313.223,1030.985,2321.983,1065.804z"/>
						<path style="fill:#0E0E0E;" d="M2211.805,1090.573c45.843-8.529,87.532-11.817,111.112-22.933c0,0,7.443,16.336,0.627,26.747
							c-50.612,24.318-110.757-0.234-110.757-0.234L2211.805,1090.573z"/>
					</g>
				</g>
				<path style="fill:#F7A594;" d="M2229.725,1104.885c3.494,6.659,1.314,11.483-5.956,13.174
					c-5.775,1.343-13.083-2.112-16.577-8.771c-3.494-6.658-1.325-12.587,3.925-15.342
					C2216.367,1091.192,2226.232,1098.226,2229.725,1104.885z"/>
				<path style="fill:#803221;" d="M2289.063,1122.435c-2.207,0-4.817-0.819-7.452-3.041c-0.323-0.272-0.364-0.756-0.092-1.08
					c0.272-0.323,0.758-0.363,1.08-0.092c3.725,3.142,7.37,3.052,9.362,2.02c1.751-0.906,2.656-2.584,2.484-4.603
					c-0.113-1.336-0.61-2.334-1.52-3.053c-2.167-1.713-5.907-1.177-5.945-1.172c-0.283,0.042-0.559-0.073-0.727-0.299
					c-0.169-0.225-0.201-0.525-0.083-0.78l1.756-3.797c0.178-0.385,0.638-0.549,1.017-0.374c0.385,0.178,0.552,0.633,0.374,1.017
					l-1.21,2.617c1.519-0.038,3.979,0.174,5.764,1.582c1.245,0.981,1.952,2.37,2.102,4.129c0.224,2.628-1.013,4.905-3.308,6.094
					C2291.689,1122.108,2290.456,1122.435,2289.063,1122.435z"/>
				<g>
					<g>
						<path style="fill:#0C3066;" d="M2206.737,1090.445c37.193-30.115,62.153-42.462,106.716-51.338
							c0,0-44.063-60.87-96.208-27.404C2172.878,1040.178,2206.737,1090.445,2206.737,1090.445z"/>
					</g>
					<path style="fill:#0C3066;" d="M2314.914,1047.255c-28.662-1.42-100.047,46.52-108.873,59.624
						c-3.085,3.184-14.921-16.166-6.022-28.746c5.382-7.609,55.625-44.569,102.813-50.97
						C2316.858,1025.259,2321.996,1046.851,2314.914,1047.255z"/>
					
						<ellipse transform="matrix(0.9119 -0.4104 0.4104 0.9119 -226.4051 996.5338)" style="fill:#0C3066;" cx="2207.999" cy="1025.627" rx="24.024" ry="15.58"/>
					<path style="fill:#2257A8;" d="M2200.019,1079.665c-0.395,0-0.788-0.151-1.088-0.453c-0.596-0.601-0.593-1.57,0.008-2.167
						c0.442-0.438,44.869-43.95,103.7-51.403c0.839-0.097,1.605,0.488,1.713,1.328c0.106,0.84-0.488,1.606-1.328,1.713
						c-57.772,7.318-101.49,50.106-101.926,50.538C2200.799,1079.517,2200.409,1079.665,2200.019,1079.665z"/>
				</g>
				<path style="fill:#BD4A31;" d="M2247.74,1073.954c0,0,4.542,6.469,12.741,0.458c8.199-6.01,6.527-7.795,6.527-7.795
					s10.103,11.134,23.602,1.934c6.871-4.682,4.116-12.584,4.116-12.584c19.529,12.094,49.959,3.134,46.161-17.097
					c-9.531-19.821-26.355-6.496-30.696,0.901C2305.766,1039.667,2264.945,1055.478,2247.74,1073.954z"/>
				<path style="fill:#FFFFFF;" d="M2277.831,1092.31c0.02,4.391-3.525,7.96-7.91,7.98c-4.391,0.019-7.967-3.519-7.986-7.91
					c-0.009-2.101,0.8-4.01,2.121-5.437c4.539-3.516,11.952-3.052,13.571,3.621
					C2277.757,1091.127,2277.829,1091.712,2277.831,1092.31z"/>
				<path style="fill:#0E0E0E;" d="M2269.004,1092.164c0.006,1.37-0.99,2.486-2.225,2.491s-2.241-1.101-2.247-2.472
					c-0.006-1.371,0.99-2.486,2.225-2.492C2267.992,1089.687,2268.998,1090.794,2269.004,1092.164z"/>
				<path style="fill:#FFFFFF;" d="M2316.258,1086.309c0.019,4.252-3.413,7.714-7.666,7.733c-3.026,0.013-5.65-1.717-6.919-4.247
					c-3.541-6.136,2.135-14.013,10.794-10.093C2314.725,1081.031,2316.245,1083.491,2316.258,1086.309z"/>
				<path style="fill:#0E0E0E;" d="M2306.588,1086.638c0.006,1.349-0.99,2.447-2.225,2.453c-1.235,0.005-2.241-1.084-2.247-2.433
					c-0.006-1.349,0.99-2.447,2.225-2.453C2305.576,1084.2,2306.582,1085.289,2306.588,1086.638z"/>
			</g>
			<path style="fill:#BD3831;" d="M2256.433,1137.057c-0.811-10.077,24.672-7.761,28.726-3.475
				C2289.214,1137.868,2257.244,1147.135,2256.433,1137.057z"/>
		</g>
		<g>
			<g>
				
					<rect x="2095.219" y="1196.529" transform="matrix(0.9983 0.0583 -0.0583 0.9983 75.7641 -121.985)" style="fill:#D6D6D6;" width="64.668" height="80.721"/>
				
					<rect x="2116.038" y="1206.852" transform="matrix(0.9983 0.0583 -0.0583 0.9983 74.1965 -122.4933)" style="fill:#B3B3B3;" width="38.937" height="5.894"/>
				
					<rect x="2103.725" y="1220.34" transform="matrix(0.9983 0.0583 -0.0583 0.9983 74.9743 -122.0914)" style="fill:#B3B3B3;" width="50.452" height="5.894"/>
				
					<rect x="2102.917" y="1234.163" transform="matrix(0.9983 0.0583 -0.0583 0.9983 75.7764 -122.0165)" style="fill:#B3B3B3;" width="50.452" height="5.894"/>
				
					<rect x="2102.109" y="1247.987" transform="matrix(0.9983 0.0583 -0.0583 0.9983 76.5814 -121.9461)" style="fill:#B3B3B3;" width="50.452" height="5.894"/>
				
					<rect x="2101.302" y="1261.811" transform="matrix(0.9983 0.0583 -0.0583 0.9983 77.3889 -121.8793)" style="fill:#B3B3B3;" width="50.452" height="5.894"/>
			</g>
			<g>
				
					<rect x="2121.788" y="1205.778" transform="matrix(0.8822 0.4708 -0.4708 0.8822 840.3587 -867.42)" style="fill:#FFFFFF;" width="64.668" height="80.721"/>
				
					<rect x="2153.215" y="1221.916" transform="matrix(0.8822 0.4708 -0.4708 0.8822 832.5325 -878.6672)" style="fill:#D6D6D6;" width="38.937" height="5.894"/>
				
					<rect x="2135.859" y="1231.422" transform="matrix(0.8822 0.4708 -0.4708 0.8822 835.6367 -872.0836)" style="fill:#D6D6D6;" width="50.452" height="5.894"/>
				
					<rect x="2129.339" y="1243.638" transform="matrix(0.8822 0.4708 -0.4708 0.8822 840.6206 -867.5755)" style="fill:#D6D6D6;" width="50.452" height="5.894"/>
				
					<rect x="2122.82" y="1255.855" transform="matrix(0.8822 0.4708 -0.4708 0.8822 845.6082 -863.0698)" style="fill:#D6D6D6;" width="50.452" height="5.894"/>
				
					<rect x="2116.301" y="1268.072" transform="matrix(0.8822 0.4708 -0.4708 0.8822 850.5904 -858.5607)" style="fill:#D6D6D6;" width="50.452" height="5.894"/>
			</g>
			<g>
				
					<rect x="2100.825" y="1216.708" transform="matrix(0.982 0.1889 -0.1889 0.982 275.7846 -380.2778)" style="fill:#FFFFFF;" width="63.895" height="79.756"/>
				
					<rect x="2124.842" y="1228.17" transform="matrix(0.982 0.1889 -0.1889 0.982 271.168 -382.8699)" style="fill:#D6D6D6;" width="38.472" height="5.824"/>
				
					<rect x="2110.982" y="1240.531" transform="matrix(0.982 0.1889 -0.1889 0.982 273.3583 -381.1065)" style="fill:#D6D6D6;" width="49.849" height="5.824"/>
				
					<rect x="2108.397" y="1253.967" transform="matrix(0.982 0.1889 -0.1889 0.982 275.8466 -380.3727)" style="fill:#D6D6D6;" width="49.849" height="5.824"/>
				
					<rect x="2105.813" y="1267.402" transform="matrix(0.982 0.1889 -0.1889 0.982 278.3382 -379.6425)" style="fill:#D6D6D6;" width="49.849" height="5.824"/>
				
					<rect x="2103.228" y="1280.838" transform="matrix(0.982 0.1889 -0.1889 0.982 280.833 -378.916)" style="fill:#D6D6D6;" width="49.849" height="5.824"/>
			</g>
			<path style="fill:#0D0D0D;" d="M2238.06,1175.336c0,0-13.351,67.855-80.165,87.719c-59.423,17.666-62.793-29.626-61.873-40.852
				c-13.751-3.599-84.365,53.058-59.748,96.099c24.617,43.042,125.179,9.192,169.609-45.611
				c39.322-48.502,40.367-83.782,40.367-83.782C2246.929,1183.77,2242.372,1175.917,2238.06,1175.336z"/>
		</g>
		<g>
			<g>
				<path style="fill:#80C8FF;" d="M1856.816,1266.624c-19.721,0.561-43.151-20.548-43.151-20.548
					c29.957-5.558,48.031-15.619,56.413-31.353l45.621,30.372C1903.509,1256.556,1876.537,1266.062,1856.816,1266.624z"/>
			</g>
			<g>
				<path style="fill:#FFFFFF;" d="M1867.061,1227.502l-2.184,2.071l30.516,20.546c1.094-0.608,1.931-1.122,2.808-1.65
					L1867.061,1227.502z"/>
				<path style="fill:#FFFFFF;" d="M1857.12,1234.725l29.65,19.657c1.073-0.487,2.172-0.956,3.15-1.433l-30.094-19.952
					L1857.12,1234.725z"/>
				<path style="fill:#FFFFFF;" d="M1848.119,1240.426l27.653,18.251c1.188-0.401,2.355-0.803,3.474-1.22l-28.018-18.491
					L1848.119,1240.426z"/>
				<path style="fill:#FFFFFF;" d="M1837.171,1244.355l26.554,17.734c1.323-0.297,2.53-0.66,3.801-0.99l-26.48-17.685
					L1837.171,1244.355z"/>
			</g>
		</g>
		<g>
			<g>
				<path style="fill:#80C8FF;" d="M1756.838,1197.349c14.666-0.946,30.587-18.22,30.587-18.22
					c-15.163,1.178-40.474-7.207-49.767-14.7l-26.095,19.786C1721.396,1191.875,1742.172,1198.294,1756.838,1197.349z"/>
			</g>
		</g>
		<path style="fill:#CC6B58;" d="M2415.411,1165.264c-7.426,0-18.019-6.946-18.595-7.328c-0.224-0.148-0.284-0.449-0.137-0.672
			c0.148-0.225,0.451-0.284,0.672-0.137c0.177,0.117,17.657,11.583,22.764,5.304c0.17-0.208,0.476-0.239,0.682-0.07
			c0.208,0.169,0.239,0.474,0.07,0.682C2419.566,1164.643,2417.629,1165.264,2415.411,1165.264z"/>
		<g>
			<polygon style="fill:#F7370C;" points="2168.889,941.447 2154.805,949.956 2113.143,889.057 2134.14,876.372 			"/>
			<path style="fill:#F7370C;" d="M2179.697,956.8c2.761,4.571,1.294,10.516-3.277,13.278c-4.572,2.762-10.516,1.295-13.278-3.277
				c-2.761-4.571-1.294-10.516,3.277-13.278C2170.99,950.762,2176.935,952.229,2179.697,956.8z"/>
		</g>
		<path style="fill:#267BFF;" d="M2156.314,1047.636h-216.281c-0.875,0-1.585-0.71-1.585-1.585s0.71-1.585,1.585-1.585h216.281
			c0.875,0,1.585,0.71,1.585,1.585S2157.189,1047.636,2156.314,1047.636z"/>
		<path style="fill:#267BFF;" d="M2004.646,1339.421h-347.879c-0.875,0-1.585-0.71-1.585-1.585s0.71-1.585,1.585-1.585h347.879
			c0.875,0,1.585,0.71,1.585,1.585S2005.521,1339.421,2004.646,1339.421z"/>
		<path style="fill:#267BFF;" d="M1940.033,1081.287h-58.604c-0.875,0-1.585-0.71-1.585-1.585s0.71-1.585,1.585-1.585h58.604
			c0.875,0,1.585,0.71,1.585,1.585S1940.908,1081.287,1940.033,1081.287z"/>
		<path style="fill:#267BFF;" d="M2165.521,1081.287h-199.78c-0.875,0-1.585-0.71-1.585-1.585s0.71-1.585,1.585-1.585h199.78
			c0.875,0,1.585,0.71,1.585,1.585S2166.396,1081.287,2165.521,1081.287z"/>
	</g>
</g>
</svg>
